<?xml version="1.0" encoding="utf-8"?>
<!-- Generator: Adobe Illustrator 16.0.0, SVG Export Plug-In . SVG Version: 6.00 Build 0)  -->
<!DOCTYPE svg PUBLIC "-//W3C//DTD SVG 1.1//EN" "http://www.w3.org/Graphics/SVG/1.1/DTD/svg11.dtd">
<svg version="1.1" id="Layer_1" xmlns="http://www.w3.org/2000/svg" xmlns:xlink="http://www.w3.org/1999/xlink" x="0px" y="0px"
	 width="1134px" height="210px" viewBox="0 0 1134 210" enable-background="new 0 0 1134 210" xml:space="preserve">
<g>
	<path fill="#393939" d="M92.931641,130.374023v9.273438c0,16.399414-7.730469,24.595703-23.184082,24.595703H57.248047
		c-15.457031,0-23.184082-8.196289-23.184082-24.595703V44.089355c0-16.395996,7.727051-24.595215,23.184082-24.595215h12.499512
		c15.453613,0,23.184082,8.199219,23.184082,24.595215v16.32959H73.577637V45.500488c0-5.64502-2.891602-8.467285-8.668945-8.467285
		h-3.830078c-5.109375,0-7.661133,2.822266-7.661133,8.467285v92.73584c0,5.645508,2.551758,8.467773,7.661133,8.467773h4.838379
		c5.105957,0,7.660645-2.822266,7.660645-8.467773v-7.862305H92.931641z"/>
	<path fill="#393939" d="M108.051758,19.494141h37.900879c14.782715,0,22.175781,8.265625,22.175781,24.796875v35.683105
		c0,12.635254-3.830078,20.632324-11.491211,23.990723l13.507324,60.27832h-18.345703l-12.700684-58.463867h-11.692871v58.463867
		h-19.353516V19.494141z M127.405273,89.247559h12.700684c5.777344,0,8.668945-3.493164,8.668945-10.48291V47.516602
		c0-6.986816-2.891602-10.483398-8.668945-10.483398h-12.700684V89.247559z"/>
	<path fill="#393939" d="M184.254883,164.243164V19.494141h47.980957v17.539063h-28.627441v43.94873h25.401367v17.539551h-25.401367
		v48.182617h28.627441v17.539063H184.254883z"/>
	<path fill="#393939" d="M264.489746,164.243164H245.13623V44.291016c0-16.53125,7.727051-24.796875,23.184082-24.796875h14.515137
		c15.454102,0,23.184082,8.265625,23.184082,24.796875v119.952148h-19.353516v-53.020508h-22.17627V164.243164z
		 M286.666016,93.683594V45.500488c0-5.64502-2.822266-8.467285-8.467285-8.467285h-5.241699
		c-5.644531,0-8.467285,2.822266-8.467285,8.467285v48.183105H286.666016z"/>
	<path fill="#393939" d="M353.998047,37.033203v127.209961h-19.353516V37.033203h-18.547363V19.494141h56.448242v17.539063
		H353.998047z"/>
	<path fill="#393939" d="M406.008789,164.243164c-15.592773,0-23.385742-8.196289-23.385742-24.595703V44.291016
		c0-16.53125,7.727051-24.796875,23.184082-24.796875h18.547363c15.454102,0,23.184082,8.265625,23.184082,24.796875v95.356445
		c0,16.399414-7.796387,24.595703-23.385742,24.595703H406.008789z M410.645508,146.704102h9.878418
		c5.106445,0,7.661133-2.822266,7.661133-8.467773v-92.73584c0-5.64502-2.89209-8.467285-8.668945-8.467285h-9.072266
		c-5.644531,0-8.467285,2.822266-8.467285,8.467285v92.73584C401.976563,143.881836,404.865234,146.704102,410.645508,146.704102z"
		/>
	<path fill="#393939" d="M464.67334,19.494141h37.900879c14.782715,0,22.175781,8.265625,22.175781,24.796875v35.683105
		c0,12.635254-3.830078,20.632324-11.491211,23.990723l13.507324,60.27832H508.42041l-12.700684-58.463867h-11.692871v58.463867
		H464.67334V19.494141z M484.026855,89.247559h12.700684c5.777344,0,8.668945-3.493164,8.668945-10.48291V47.516602
		c0-6.986816-2.891602-10.483398-8.668945-10.483398h-12.700684V89.247559z"/>
	<path fill="#393939" d="M577.970703,58.402832V45.702148c0-5.777344-2.822266-8.668945-8.467285-8.668945h-3.023926
		c-5.512695,0-8.265625,2.891602-8.265625,8.668945v23.990234c0,2.69043,0.535645,4.504395,1.612793,5.443359
		c1.074219,0.941895,2.822266,2.151367,5.241699,3.628906l18.345703,9.878418
		c4.031738,2.286621,6.885742,4.066895,8.567871,5.342285c1.679199,1.279297,2.98877,2.822266,3.931152,4.636719
		c0.938477,1.814453,1.411133,5.276367,1.411133,10.382813v30.844727c0,16.263672-7.795898,24.393555-23.385254,24.393555
		h-11.894531c-15.457031,0-23.184082-8.870117-23.184082-26.611328v-7.257813h19.353516v7.862305
		c0,5.645508,2.888672,8.467773,8.668945,8.467773h3.427246c5.105957,0,7.660645-2.822266,7.660645-8.467773v-24.594727
		c0-2.6875-0.538574-4.501953-1.612793-5.443359c-1.077148-0.938477-2.822266-2.148438-5.241699-3.628906l-18.345703-10.28125
		c-4.031738-2.148438-6.955078-3.962891-8.769531-5.443359c-1.814453-1.477539-3.124512-3.392578-3.931152-5.745605
		c-0.806641-2.350098-1.209473-5.408691-1.209473-9.172852V44.291016c0-16.53125,7.727051-24.796875,23.184082-24.796875h12.095703
		c15.454102,0,23.184082,8.265625,23.184082,24.796875v14.111816H577.970703z"/>
	<path fill="#5A5A5A" d="M682.797852,58.402832V45.702148c0-5.777344-2.823242-8.668945-8.467773-8.668945h-3.023438
		c-5.512695,0-8.265625,2.891602-8.265625,8.668945v23.990234c0,2.69043,0.535156,4.504395,1.612305,5.443359
		c1.074219,0.941895,2.822266,2.151367,5.241211,3.628906l18.345703,9.878418
		c4.032227,2.286621,6.886719,4.066895,8.568359,5.342285c1.678711,1.279297,2.989258,2.822266,3.931641,4.636719
		c0.938477,1.814453,1.411133,5.276367,1.411133,10.382813v30.844727c0,16.263672-7.796875,24.393555-23.385742,24.393555
		h-11.894531c-15.457031,0-23.18457-8.870117-23.18457-26.611328v-7.257813h19.354492v7.862305
		c0,5.645508,2.887695,8.467773,8.667969,8.467773h3.427734c5.106445,0,7.661133-2.822266,7.661133-8.467773v-24.594727
		c0-2.6875-0.539063-4.501953-1.613281-5.443359c-1.077148-0.938477-2.822266-2.148438-5.241211-3.628906l-18.345703-10.28125
		c-4.032227-2.148438-6.955078-3.962891-8.769531-5.443359c-1.814453-1.477539-3.125-3.392578-3.931641-5.745605
		c-0.806641-2.350098-1.209961-5.408691-1.209961-9.172852V44.291016c0-16.53125,7.727539-24.796875,23.18457-24.796875h12.095703
		c15.454102,0,23.18457,8.265625,23.18457,24.796875v14.111816H682.797852z"/>
	<path fill="#5A5A5A" d="M740.65332,164.243164c-15.591797,0-23.384766-8.196289-23.384766-24.595703V44.291016
		c0-16.53125,7.726563-24.796875,23.183594-24.796875h18.546875c15.454102,0,23.18457,8.265625,23.18457,24.796875v95.356445
		c0,16.399414-7.795898,24.595703-23.385742,24.595703H740.65332z M745.291016,146.704102h9.87793
		c5.106445,0,7.661133-2.822266,7.661133-8.467773v-92.73584c0-5.64502-2.891602-8.467285-8.668945-8.467285h-9.072266
		c-5.644531,0-8.466797,2.822266-8.466797,8.467285v92.73584C736.62207,143.881836,739.510742,146.704102,745.291016,146.704102z"/>
	<path fill="#5A5A5A" d="M857.177734,130.374023v9.273438c0,16.399414-7.730469,24.595703-23.18457,24.595703h-12.499023
		c-15.457031,0-23.183594-8.196289-23.183594-24.595703V44.089355c0-16.395996,7.726563-24.595215,23.183594-24.595215h12.499023
		c15.454102,0,23.18457,8.199219,23.18457,24.595215v16.32959h-19.353516V45.500488c0-5.64502-2.891602-8.467285-8.668945-8.467285
		h-3.831055c-5.109375,0-7.660156,2.822266-7.660156,8.467285v92.73584c0,5.645508,2.550781,8.467773,7.660156,8.467773h4.838867
		c5.106445,0,7.661133-2.822266,7.661133-8.467773v-7.862305H857.177734z"/>
	<path fill="#5A5A5A" d="M872.297852,164.243164V19.494141h19.353516v144.749023H872.297852z"/>
	<path fill="#5A5A5A" d="M909.793945,164.243164V19.494141h47.980469v17.539063h-28.626953v43.94873h25.401367v17.539551h-25.401367
		v48.182617h28.626953v17.539063H909.793945z"/>
	<path fill="#5A5A5A" d="M1002.52832,37.033203v127.209961h-19.353516V37.033203h-18.547852V19.494141h56.448242v17.539063
		H1002.52832z"/>
	<path fill="#5A5A5A" d="M1068.24707,164.243164h-19.353516v-53.222656l-23.789063-91.526367h19.152344l14.515625,62.898926
		h0.604492l13.104492-62.898926h19.151367l-23.385742,91.526367V164.243164z"/>
</g>
<rect x="23" y="181" fill="#E66400" width="1085" height="6"/>
<g>
	<path fill="#E66400" d="M608.280273,81.11377l11.592773-32.507813H608.02832v-34.02002h16.883789
		c6.717773,0,10.080078,3.362793,10.080078,10.080078v23.939941L622.896484,81.11377H608.280273z"/>
</g>
<g>
</g>
<g>
</g>
<g>
</g>
<g>
</g>
<g>
</g>
<g>
</g>
<g>
</g>
<g>
</g>
<g>
</g>
<g>
</g>
<g>
</g>
<g>
</g>
<g>
</g>
<g>
</g>
<g>
</g>
</svg>
